<?xml version="1.0" encoding="UTF-8"?>
<svg width="32px" height="48px" viewBox="0 0 32 48" version="1.1" xmlns="http://www.w3.org/2000/svg" xmlns:xlink="http://www.w3.org/1999/xlink">
    <!-- Generator: Sketch 60.1 (88133) - https://sketch.com -->
    <title>creative-idea</title>
    <desc>Created with Sketch.</desc>
    <g id="Home" stroke="none" stroke-width="1" fill="none" fill-rule="evenodd">
        <g id="Inicio" transform="translate(-108.000000, -586.000000)" fill="#FFFFFF" fill-rule="nonzero">
            <g id="creative-idea" transform="translate(108.000000, 586.000000)">
                <path d="M30.2806,23.2 C31.3991,20.9904 32,18.5362 32,16 C32,7.1777 24.8227,0 16,0 C7.1773,0 0,7.1777 0,16 C0,18.5371 0.6015,20.992 1.7206,23.2021 L1.6164,23.2 C1.97859095,23.7333333 2.33122428,24.2739667 2.6743,24.8219 C3.0849,25.4387 3.5263,26.0379 4.0251,26.5986 C4.047,26.6845 4.0837,26.7677 4.1345,26.8439 C6.7603,30.7822 6.9134,31.5982 7.3689,34.0209 C7.4533,34.4658 7.5462,34.96 7.6642,35.5287 C7.8678,36.521 8.4487,37.3289 9.2311,37.8343 C8.9609,38.2226 8.8001,38.6923 8.8001,39.2002 C8.8001,40.0525 9.2498,40.7977 9.9212,41.2235 C9.7227,41.5727 9.6001,41.9706 9.6001,42.4002 C9.6001,43.2525 10.0498,43.9977 10.7212,44.4235 C10.5227,44.7727 10.4001,45.1706 10.4001,45.6002 C10.4001,46.9236 11.4767,48.0002 12.8001,48.0002 L19.2001,48.0002 C20.5235,48.0002 21.6001,46.9236 21.6001,45.6002 C21.6001,45.1706 21.4775,44.7728 21.279,44.4235 C21.9504,43.9976 22.4001,43.2525 22.4001,42.4002 C22.4001,41.9706 22.2775,41.5728 22.079,41.2235 C22.7504,40.7976 23.2001,40.0525 23.2001,39.2002 C23.2001,38.6923 23.0394,38.2227 22.7692,37.8344 C23.5516,37.3292 24.1324,36.5219 24.336,35.5307 C24.454,34.96 24.5469,34.4659 24.6313,34.0209 C25.0868,31.5982 25.2399,30.7822 27.8657,26.8439 C27.9165,26.7677 27.9532,26.6845 27.9751,26.5986 C28.4798,26.0313 28.9261,25.4249 29.3405,24.8002 L30.2806,23.2 Z M19.2001,46.4 L12.8001,46.4 C12.3587,46.4 12.0001,46.041 12.0001,45.6 C12.0001,45.159 12.3587,44.8 12.8001,44.8 L19.2001,44.8 C19.6415,44.8 20.0001,45.159 20.0001,45.6 C20.0001,46.041 19.6415,46.4 19.2001,46.4 Z M20.0001,43.2 L19.2001,43.2 L12.8001,43.2 L12.0001,43.2 C11.5587,43.2 11.2001,42.841 11.2001,42.4 C11.2001,41.959 11.5587,41.6 12.0001,41.6 L20.0001,41.6 C20.4415,41.6 20.8001,41.959 20.8001,42.4 C20.8001,42.841 20.4415,43.2 20.0001,43.2 Z M20.8001,40 L20.0001,40 L12.0001,40 L11.2001,40 C10.7587,40 10.4001,39.641 10.4001,39.2 C10.4001,38.759 10.7587,38.4 11.2001,38.4 L20.8001,38.4 C21.2415,38.4 21.6001,38.759 21.6001,39.2 C21.6001,39.641 21.2415,40 20.8001,40 Z M26.4899,25.8508 C26.3594,25.9895 26.2852,26.1672 26.2735,26.35 C23.7149,30.234 23.5172,31.2879 23.0587,33.725 C22.9767,34.1609 22.8853,34.6457 22.7689,35.2074 C22.5767,36.1449 21.7962,36.8 20.872,36.8 L20.8001,36.8 L19.3533,36.8 L21.4709,24.8 L22.4001,24.8 C23.7235,24.8 24.8001,23.7234 24.8001,22.4 L24.8001,19.2 L27.2001,19.2 C27.6423,19.2 28.0001,18.8418 28.0001,18.4 L28.0001,14.4 C28.0001,13.0766 26.9235,12 25.6001,12 L25.6001,9.6 C25.6001,8.2766 24.5235,7.2 23.2001,7.2 L22.4001,7.2 C22.4001,5.8766 21.3235,4.8 20.0001,4.8 L17.6001,4.8 C17.1579,4.8 16.8001,5.1582 16.8001,5.6 L16.8001,24 C16.8001,24.4418 17.1579,24.8 17.6001,24.8 L19.8469,24.8 L17.7293,36.8 L14.271,36.8 L12.1534,24.8 L14.4001,24.8 C14.8423,24.8 15.2001,24.4418 15.2001,24 L15.2001,5.6 C15.2001,5.1582 14.8423,4.8 14.4001,4.8 L12.0001,4.8 C10.6767,4.8 9.6001,5.8766 9.6001,7.2 L8.8001,7.2 C7.4767,7.2 6.4001,8.2766 6.4001,9.6 L6.4001,12 C5.0767,12 4.0001,13.0766 4.0001,14.4 L4.0001,20 C4.0001,20.4418 4.3579,20.8 4.8001,20.8 L7.2001,20.8 L7.2001,22.4 C7.2001,23.7234 8.2767,24.8 9.6001,24.8 L10.5293,24.8 L12.6469,36.8 L11.2001,36.8 L11.1282,36.8 C10.204,36.8 9.4235,36.1449 9.2313,35.2055 C9.1149,34.6457 9.0235,34.161 8.9415,33.725 C8.4829,31.2879 8.2852,30.234 5.7267,26.35 C5.715,26.1672 5.6408,25.9895 5.5103,25.8508 C2.9884,23.1797 1.6001,19.6816 1.6001,16 C1.6001,8.0598 8.0603,1.6 16.0001,1.6 C23.9399,1.6 30.4001,8.0598 30.4001,16 C30.4001,19.6816 29.0118,23.1797 26.4899,25.8508 Z M21.6001,13.6 L21.6001,11.2 C21.6001,10.7582 21.2423,10.4 20.8001,10.4 L18.4001,10.4 L18.4001,6.4 L20.0001,6.4 C20.4415,6.4 20.8001,6.759 20.8001,7.2 L20.8001,8 C20.8001,8.4418 21.1579,8.8 21.6001,8.8 L23.2001,8.8 C23.6415,8.8 24.0001,9.159 24.0001,9.6 L24.0001,12.8 C24.0001,13.2418 24.3579,13.6 24.8001,13.6 L25.6001,13.6 C26.0415,13.6 26.4001,13.959 26.4001,14.4 L26.4001,17.6 L24.0001,17.6 L20.8001,17.6 C20.3579,17.6 20.0001,17.9582 20.0001,18.4 L20.0001,20 L21.6001,20 L21.6001,19.2 L23.2001,19.2 L23.2001,22.4 C23.2001,22.841 22.8415,23.2 22.4001,23.2 L18.4001,23.2 L18.4001,12 L20.0001,12 L20.0001,13.6 L21.6001,13.6 Z M8.0001,16 C7.5579,16 7.2001,16.3582 7.2001,16.8 L7.2001,19.2 L5.6001,19.2 L5.6001,14.4 C5.6001,13.959 5.9587,13.6 6.4001,13.6 L7.2001,13.6 C7.6423,13.6 8.0001,13.2418 8.0001,12.8 L8.0001,9.6 C8.0001,9.159 8.3587,8.8 8.8001,8.8 L9.6001,8.8 L9.6001,10.4 L11.2001,10.4 L11.2001,8 L11.2001,7.2 C11.2001,6.759 11.5587,6.4 12.0001,6.4 L13.6001,6.4 L13.6001,23.2 L9.6001,23.2 C9.1587,23.2 8.8001,22.841 8.8001,22.4 L8.8001,20 L8.8001,17.6 L10.4001,17.6 L10.4001,16 L8.0001,16 Z" id="Shape"></path>
            </g>
        </g>
    </g>
</svg>