<?xml version="1.0" encoding="UTF-8"?>
<svg width="50px" height="48px" viewBox="0 0 50 48" version="1.1" xmlns="http://www.w3.org/2000/svg" xmlns:xlink="http://www.w3.org/1999/xlink">
    <!-- Generator: Sketch 60.1 (88133) - https://sketch.com -->
    <title>customer-service</title>
    <desc>Created with Sketch.</desc>
    <g id="Home" stroke="none" stroke-width="1" fill="none" fill-rule="evenodd">
        <g id="Inicio" transform="translate(-665.000000, -1513.000000)" fill="#FFFFFF" fill-rule="nonzero">
            <g id="customer-service" transform="translate(665.000000, 1513.000000)">
                <path d="M40.5770161,41.5483871 L38.7100806,35.9467742 C38.0576613,33.991129 36.3931452,32.5475806 34.3641129,32.1782258 L28.9745968,31.1975806 L28.9745968,30.7798387 C29.9125,30.2354839 30.728629,29.5072581 31.378629,28.6451613 L33.0068548,28.6451613 C34.3407258,28.6451613 35.4262097,27.5596774 35.4262097,26.2258065 L35.4262097,16.5483871 C35.4262097,10.7677419 30.7229839,6.06451613 24.9423387,6.06451613 C19.1616935,6.06451613 14.4584677,10.7677419 14.4584677,16.5483871 L14.4584677,22.1935484 C14.4584677,23.7483871 15.5641129,25.0491935 17.0302419,25.3524194 C17.4826613,27.6701613 18.9310484,29.6314516 20.9100806,30.7798387 L20.9100806,31.1975806 L15.5197581,32.1782258 C13.4915323,32.5475806 11.8262097,33.991129 11.1745968,35.9467742 L10.8520161,36.9153226 L8.10524194,34.1685484 C7.79072581,33.8540323 7.79072581,33.3419355 8.10524194,33.0274194 L11.2907258,29.8427419 L5.31169355,23.8637097 L1.71169355,27.4637097 C0.645564516,28.5298387 0.0584677419,29.9475806 0.0584677419,31.4556452 C0.0584677419,32.9637097 0.645564516,34.3806452 1.71169355,35.4467742 L12.6108871,46.3459677 C13.6770161,47.4120968 15.0947581,48 16.6028226,48 C18.1108871,48 19.5278226,47.4120968 20.5689516,46.3701613 L24.4971774,42.7709677 L23.2721774,41.5483871 L40.5770161,41.5483871 Z M33.8133065,26.2258065 C33.8133065,26.6709677 33.4512097,27.0322581 33.0068548,27.0322581 L32.328629,27.0322581 C32.5625,26.4991935 32.7399194,25.9370968 32.8544355,25.3524194 C33.1995968,25.2806452 33.5173387,25.1435484 33.8133065,24.9709677 L33.8133065,26.2258065 Z M33.0068548,23.5822581 L33.0068548,20.8048387 C33.4866935,21.0846774 33.8133065,21.5991935 33.8133065,22.1935484 C33.8133065,22.7879032 33.4866935,23.3024194 33.0068548,23.5822581 Z M16.8778226,23.5822581 C16.3979839,23.3024194 16.071371,22.7879032 16.071371,22.1935484 C16.071371,21.5991935 16.3979839,21.0846774 16.8778226,20.8048387 L16.8778226,23.5822581 Z M16.8778226,18.1612903 L16.8778226,19.0822581 C16.5907258,19.1572581 16.321371,19.2701613 16.071371,19.416129 L16.071371,16.5483871 C16.071371,11.6572581 20.0512097,7.67741935 24.9423387,7.67741935 C29.8334677,7.67741935 33.8133065,11.6572581 33.8133065,16.5483871 L33.8133065,19.416129 C33.5633065,19.2701613 33.2939516,19.1564516 33.0068548,19.0822581 L33.0068548,18.1612903 L32.2004032,18.1612903 C29.8157258,18.1612903 27.5737903,17.2322581 25.8866935,15.5459677 L24.9423387,14.6016129 L23.9979839,15.5459677 C22.3108871,17.2322581 20.0689516,18.1612903 17.6842742,18.1612903 L16.8778226,18.1612903 Z M18.4907258,23.8064516 L18.4907258,19.7435484 C20.9125,19.5612903 23.1705645,18.5620968 24.9423387,16.8774194 C26.7141129,18.5620968 28.9721774,19.5620968 31.3939516,19.7435484 L31.3939516,23.8064516 C31.3939516,24.9822581 31.0729839,26.0822581 30.521371,27.0322581 L24.9423387,27.0322581 L24.9423387,28.6451613 L29.1955645,28.6451613 C28.0584677,29.6459677 26.5721774,30.2580645 24.9423387,30.2580645 C21.3850806,30.2580645 18.4907258,27.3637097 18.4907258,23.8064516 Z M27.3616935,31.4991935 L27.3616935,31.5370968 L24.9423387,33.9564516 L22.5229839,31.5370968 L22.5229839,31.4991935 C23.2875,31.7395161 24.0995968,31.8709677 24.9423387,31.8709677 C25.7850806,31.8709677 26.5971774,31.7395161 27.3616935,31.4991935 Z M12.703629,36.4564516 C13.1689516,35.0596774 14.3584677,34.0282258 15.8076613,33.7637097 L21.4447581,32.7395161 L24.9423387,36.2370968 L28.4391129,32.7403226 L34.0754032,33.7645161 C35.5245968,34.0290323 36.7141129,35.0596774 37.1794355,36.4572581 L38.3399194,39.9354839 L21.6592742,39.9354839 L18.5181452,36.7943548 L15.0278226,39.9516129 C14.7237903,40.2572581 14.1923387,40.2572581 13.8875,39.9516129 L12.1262097,38.1903226 L12.703629,36.4564516 Z M5.3108871,26.1443548 L9.00927419,29.8427419 L8.13346774,30.7185484 L4.43508065,27.0201613 L5.3108871,26.1443548 Z M19.4520161,45.2072581 C18.6907258,45.9669355 17.6778226,46.3870968 16.6012097,46.3870968 C15.5245968,46.3870968 14.5116935,45.9669355 13.7495968,45.2056452 L2.85040323,34.3072581 C2.0891129,33.5459677 1.66975806,32.5330645 1.66975806,31.4564516 C1.66975806,30.3790323 2.0891129,29.366129 2.85040323,28.6048387 L3.29395161,28.1612903 L6.99233871,31.8596774 L6.96330645,31.8887097 C6.02056452,32.8322581 6.02056452,34.3669355 6.96330645,35.3104839 L12.746371,41.0935484 C13.203629,41.55 13.8108871,41.8024194 14.4576613,41.8024194 C15.1044355,41.8024194 15.7116935,41.5508065 16.1391129,41.1217742 L16.1995968,41.0677419 L19.9149194,44.7830645 L19.4520161,45.2072581 Z M21.1052419,43.691129 L17.3979839,39.983871 L18.4633065,39.0209677 L22.1641129,42.7217742 L21.1052419,43.691129 Z" id="Shape"></path>
                <rect id="Rectangle" x="38" y="6" width="1.61290323" height="1.61290323"></rect>
                <path d="M24.9423387,0.419354839 C14.4052419,0.419354839 5.32862903,7.70806452 2.96895161,17.875 L1.44072581,15.3274194 L0.0576612903,16.1572581 L2.89233871,20.8806452 L7.61572581,18.0459677 L6.7858871,16.6629032 L4.60040323,17.9741935 C6.8858871,8.6733871 15.2495968,2.03225806 24.9423387,2.03225806 C27.0608871,2.03225806 29.1512097,2.34677419 31.1552419,2.96774194 L31.6326613,1.42741935 C29.4737903,0.758064516 27.2229839,0.419354839 24.9423387,0.419354839 Z" id="Path"></path>
                <path d="M49.5504032,15.8564516 L44.8270161,13.0217742 L41.9931452,17.7459677 L43.3762097,18.5758065 L44.7875,16.2233871 C45.5302419,18.3967742 45.9100806,20.6701613 45.9100806,23 C45.9100806,27.7959677 44.2487903,32.4846774 41.2334677,36.2016129 L42.4858871,37.2177419 C45.7342742,33.2145161 47.5229839,28.1645161 47.5229839,23 C47.5229839,20.5330645 47.1254032,18.1241935 46.3504032,15.8177419 L48.7205645,17.2395161 L49.5504032,15.8564516 Z" id="Path"></path>
            </g>
        </g>
    </g>
</svg>