<?xml version="1.0" encoding="UTF-8"?>
<svg width="9px" height="14px" viewBox="0 0 9 14" version="1.1" xmlns="http://www.w3.org/2000/svg" xmlns:xlink="http://www.w3.org/1999/xlink">
    <!-- Generator: Sketch 60.1 (88133) - https://sketch.com -->
    <title>Shape 3</title>
    <desc>Created with Sketch.</desc>
    <g id="Home" stroke="none" stroke-width="1" fill="none" fill-rule="evenodd">
        <g id="Inicio" transform="translate(-1349.000000, -502.000000)" fill="#FFFFFF">
            <g id="arrow-carrousel" transform="translate(1354.000000, 509.000000) rotate(180.000000) translate(-1354.000000, -509.000000) translate(1328.000000, 483.000000)">
                <g id="Shape-3" transform="translate(22.100000, 19.500000)">
                    <path d="M2.14947553,6.48200968 L8.06291653,1.12999355 C8.19862923,1.00716452 8.19862923,0.808012903 8.06291653,0.685225806 L7.40765912,0.0921322581 C7.34251332,0.0331290323 7.25410778,-2.56328292e-13 7.16194917,-2.56328292e-13 C7.06979057,-2.56328292e-13 6.98138503,0.0331290323 6.91623923,0.0921322581 L0.101784523,6.25962581 C-0.0339281743,6.38245484 -0.0339281743,6.58160645 0.101784523,6.70439355 L6.91619289,12.8718871 C6.98133869,12.9308903 7.06974423,12.9640194 7.16190284,12.9640194 C7.25406144,12.9640194 7.34246698,12.9308903 7.40761278,12.8718871 L8.0628702,12.2787935 C8.1985829,12.1559645 8.1985829,11.9568129 8.0628702,11.8340258 L2.14947553,6.48200968 L2.14947553,6.48200968 Z" id="Shape"></path>
                </g>
            </g>
        </g>
    </g>
</svg>