<?xml version="1.0" encoding="UTF-8"?>
<svg width="8px" height="11px" viewBox="0 0 8 11" version="1.1" xmlns="http://www.w3.org/2000/svg" xmlns:xlink="http://www.w3.org/1999/xlink">
    <!-- Generator: Sketch 60.1 (88133) - https://sketch.com -->
    <title>Shape 2</title>
    <desc>Created with Sketch.</desc>
    <g id="Symbols" stroke="none" stroke-width="1" fill="none" fill-rule="evenodd">
        <g id="header-top" transform="translate(-105.000000, -15.000000)" fill="#7BC142">
            <g transform="translate(0.000000, 12.000000)" id="menu-usuarios">
                <g transform="translate(105.000000, 3.000000)">
                    <g id="Shape-2" transform="translate(0.845892, 0.154108)">
                        <path d="M1.65344271,4.98616129 L6.20224349,0.869225806 C6.30663787,0.774741935 6.30663787,0.621548387 6.20224349,0.527096774 L5.69819932,0.0708709677 C5.64808717,0.025483871 5.58008291,-9.85878046e-14 5.50919167,-9.85878046e-14 C5.43830044,-9.85878046e-14 5.37029617,0.025483871 5.32018402,0.0708709677 L0.0782957869,4.81509677 C-0.0260985956,4.90958065 -0.0260985956,5.06277419 0.0782957869,5.15722581 L5.32014838,9.90145161 C5.37026053,9.94683871 5.43826479,9.97232258 5.50915603,9.97232258 C5.58004726,9.97232258 5.64805153,9.94683871 5.69816368,9.90145161 L6.20220785,9.44522581 C6.30660223,9.35074194 6.30660223,9.19754839 6.20220785,9.10309677 L1.65344271,4.98616129 L1.65344271,4.98616129 Z" id="Shape"></path>
                    </g>
                </g>
            </g>
        </g>
    </g>
</svg>